<svg width="23" height="23" viewBox="0 0 23 23" fill="none" xmlns="http://www.w3.org/2000/svg">
<path id="Vector" d="M0.739747 3.10627C0.739747 2.37448 1.02399 1.67266 1.52995 1.1552C2.0359 0.637749 2.72213 0.347046 3.43766 0.347046H16.6819C17.3975 0.347046 18.0837 0.637749 18.5897 1.1552C19.0956 1.67266 19.3799 2.37448 19.3799 3.10627V4.36849C20.3111 4.43213 21.1839 4.85537 21.8214 5.5525C22.459 6.24962 22.8136 7.16851 22.8136 8.12305V18.6583C22.8136 19.6562 22.426 20.6132 21.736 21.3188C21.0461 22.0244 20.1103 22.4209 19.1346 22.4209H4.42264C3.44692 22.4209 2.51116 22.0244 1.82122 21.3188C1.13128 20.6132 0.743672 19.6562 0.743672 18.6583V8.12305H0.739747V3.35711H0.750539C0.743269 3.27371 0.739668 3.19001 0.739747 3.10627ZM17.9083 3.10627C17.9083 2.41396 17.3589 1.85208 16.6819 1.85208H3.43766C3.11242 1.85208 2.8005 1.98422 2.57052 2.21942C2.34054 2.45463 2.21133 2.77364 2.21133 3.10627C2.21133 3.4389 2.34054 3.75791 2.57052 3.99312C2.8005 4.22833 3.11242 4.36047 3.43766 4.36047H17.9083V3.10627ZM16.1914 13.3907C15.9963 13.3907 15.8091 13.4699 15.6711 13.6111C15.5331 13.7522 15.4556 13.9436 15.4556 14.1432C15.4556 14.3428 15.5331 14.5342 15.6711 14.6753C15.8091 14.8164 15.9963 14.8957 16.1914 14.8957H18.6441C18.8392 14.8957 19.0264 14.8164 19.1643 14.6753C19.3023 14.5342 19.3799 14.3428 19.3799 14.1432C19.3799 13.9436 19.3023 13.7522 19.1643 13.6111C19.0264 13.4699 18.8392 13.3907 18.6441 13.3907H16.1914Z" fill="white"/>
</svg>
