<svg width="17" height="8" viewBox="0 0 17 8" fill="none" xmlns="http://www.w3.org/2000/svg">
<path id="Vector" d="M16.6364 1.42241C16.637 1.59053 16.5999 1.75665 16.5278 1.90856C16.4558 2.06046 16.3506 2.19429 16.22 2.30021L9.46772 7.73581C9.26636 7.90133 9.01377 7.99182 8.75311 7.99182C8.49244 7.99182 8.23986 7.90133 8.03849 7.73581L1.28619 2.10889C1.05636 1.91787 0.911837 1.64338 0.8844 1.3458C0.856964 1.04822 0.948865 0.751923 1.13989 0.522101C1.33091 0.292279 1.6054 0.147753 1.90298 0.120316C2.20056 0.0928797 2.49685 0.18478 2.72668 0.375801L8.75873 5.40627L14.7908 0.544609C14.956 0.406993 15.1571 0.319577 15.3704 0.292703C15.5838 0.265829 15.8003 0.300623 15.9945 0.392967C16.1886 0.485311 16.3523 0.631341 16.466 0.813778C16.5798 0.996214 16.6389 1.20742 16.6364 1.42241Z" fill="white"/>
</svg>
