<svg width="15" height="16" viewBox="0 0 15 16" fill="none" xmlns="http://www.w3.org/2000/svg">
<g id="Group 90">
<circle id="Ellipse 30" cx="7.47193" cy="8.01734" r="7.3855" fill="white"/>
<path id="Vector" fill-rule="evenodd" clip-rule="evenodd" d="M7.42918 1.71191C3.94675 1.71191 1.12354 4.53541 1.12354 8.0182C1.12354 11.501 3.94675 14.3245 7.42918 14.3245C10.9116 14.3245 13.7348 11.501 13.7348 8.0182C13.7348 4.53541 10.9116 1.71191 7.42918 1.71191ZM10.1624 6.95186C10.2127 6.89433 10.251 6.82731 10.2751 6.75474C10.2991 6.68218 10.3084 6.60554 10.3024 6.52933C10.2964 6.45312 10.2752 6.37889 10.2401 6.31099C10.205 6.24309 10.1567 6.1829 10.0979 6.13396C10.0392 6.08502 9.9713 6.04832 9.89819 6.02602C9.82508 6.00372 9.74824 5.99627 9.67221 6.0041C9.59617 6.01194 9.52247 6.0349 9.45544 6.07164C9.38841 6.10838 9.32941 6.15816 9.2819 6.21804L6.81696 9.17569L5.5415 7.89952C5.43339 7.79509 5.28859 7.73731 5.13828 7.73861C4.98798 7.73992 4.84421 7.80021 4.73792 7.90651C4.63164 8.0128 4.57135 8.15659 4.57005 8.30691C4.56874 8.45723 4.62652 8.60204 4.73094 8.71017L6.45066 10.4301C6.50699 10.4864 6.57442 10.5303 6.64867 10.5591C6.72291 10.5879 6.80234 10.6009 6.88189 10.5973C6.96144 10.5937 7.03937 10.5735 7.1107 10.5381C7.18203 10.5027 7.2452 10.4528 7.29619 10.3917L10.1624 6.95186Z" fill="#007AFF"/>
</g>
</svg>
