<svg width="23" height="23" viewBox="0 0 23 23" fill="none" xmlns="http://www.w3.org/2000/svg">
<path fill-rule="evenodd" clip-rule="evenodd" d="M2.71661 11.4562C2.71661 6.47375 6.75128 2.43005 11.7427 2.43005C16.7251 2.43005 20.7688 6.47375 20.7688 11.4562C20.7688 16.4476 16.7251 20.4823 11.7427 20.4823C6.75128 20.4823 2.71661 16.4476 2.71661 11.4562ZM13.7556 13.108L15.2178 8.48661C15.3171 8.1707 15.0282 7.87283 14.7123 7.97212L10.091 9.4163C9.90141 9.47948 9.74796 9.6239 9.69381 9.81345L8.24963 14.4438C8.15034 14.7507 8.44821 15.0486 8.75509 14.9493L13.3584 13.5051C13.548 13.451 13.7014 13.2975 13.7556 13.108Z" fill="#D2D2D2"/>
</svg>
