<svg width="26" height="25" viewBox="0 0 26 25" fill="none" xmlns="http://www.w3.org/2000/svg">
<path fill-rule="evenodd" clip-rule="evenodd" d="M21.3128 12.4571C21.3128 13.2648 22.0062 13.922 22.8584 13.922C23.2881 13.922 23.6369 14.2525 23.6369 14.6598V17.3171C23.6369 19.564 21.7083 21.3919 19.3375 21.3919H7.17727C4.80648 21.3919 2.87683 19.564 2.87683 17.3171V14.6598C2.87683 14.2525 3.2256 13.922 3.65533 13.922C4.50857 13.922 5.20196 13.2648 5.20196 12.4571C5.20196 11.67 4.5366 11.0778 3.65533 11.0778C3.44877 11.0778 3.25155 11.0001 3.10519 10.8614C2.95883 10.7227 2.87683 10.5347 2.87683 10.34L2.87891 7.59614C2.87891 5.34914 4.80751 3.52026 7.17831 3.52026H19.3354C21.7062 3.52026 23.6358 5.34914 23.6358 7.59614L23.6369 10.2544C23.6369 10.4492 23.5549 10.638 23.4095 10.7758C23.2632 10.9145 23.066 10.9922 22.8584 10.9922C22.0062 10.9922 21.3128 11.6494 21.3128 12.4571ZM15.5944 13.0995L16.8182 11.9701C17.031 11.7753 17.1047 11.488 17.0123 11.2224C16.921 10.9568 16.6823 10.7679 16.3937 10.7295L14.7028 10.4953L13.9461 9.04326C13.8163 8.79338 13.5527 8.63794 13.2589 8.63695H13.2569C12.9641 8.63695 12.7005 8.7924 12.5687 9.04228L11.812 10.4953L10.1242 10.7285C9.83249 10.7679 9.59375 10.9568 9.50137 11.2224C9.41002 11.488 9.48372 11.7753 9.69547 11.9701L10.9193 13.0995L10.6307 14.6962C10.5809 14.9716 10.6982 15.2451 10.9369 15.4094C11.0719 15.5009 11.2286 15.5481 11.3874 15.5481C11.5089 15.5481 11.6313 15.5196 11.7435 15.4635L13.2569 14.7099L14.7672 15.4616C15.0287 15.5944 15.3391 15.5737 15.5768 15.4084C15.8166 15.2451 15.9339 14.9716 15.884 14.6962L15.5944 13.0995Z" fill="#130F26"/>
</svg>
