<svg width="29" height="29" viewBox="0 0 29 29" fill="none" xmlns="http://www.w3.org/2000/svg">
<circle cx="14.5" cy="14.5" r="14.5" fill="white"/>
<path fill-rule="evenodd" clip-rule="evenodd" d="M14.5005 2.11877C7.66271 2.11877 2.11932 7.66216 2.11932 14.4999C2.11932 21.3377 7.66271 26.8811 14.5005 26.8811C21.3383 26.8811 26.8816 21.3377 26.8816 14.4999C26.8816 7.66216 21.3383 2.11877 14.5005 2.11877ZM19.8672 12.4064C19.966 12.2934 20.0412 12.1619 20.0884 12.0194C20.1356 11.8769 20.1539 11.7265 20.1421 11.5768C20.1303 11.4272 20.0887 11.2815 20.0198 11.1482C19.9508 11.0149 19.8559 10.8967 19.7406 10.8006C19.6253 10.7045 19.4919 10.6325 19.3484 10.5887C19.2048 10.5449 19.054 10.5303 18.9047 10.5456C18.7554 10.561 18.6107 10.6061 18.479 10.6782C18.3474 10.7504 18.2316 10.8481 18.1383 10.9657L13.2984 16.7724L10.794 14.2669C10.5817 14.0619 10.2974 13.9485 10.0023 13.951C9.70718 13.9536 9.42487 14.072 9.21618 14.2807C9.0075 14.4893 8.88912 14.7716 8.88656 15.0668C8.88399 15.3619 8.99744 15.6462 9.20247 15.8585L12.5792 19.2352C12.6897 19.3457 12.8222 19.432 12.9679 19.4885C13.1137 19.545 13.2697 19.5705 13.4259 19.5634C13.5821 19.5563 13.7351 19.5168 13.8751 19.4473C14.0152 19.3778 14.1392 19.2799 14.2394 19.1598L19.8672 12.4064Z" fill="#0066D5"/>
</svg>
